<svg width="19" height="18" viewBox="0 0 19 18" version="1.1" xmlns="http://www.w3.org/2000/svg" xmlns:xlink="http://www.w3.org/1999/xlink">
<title>Group</title>
<desc>Created using Figma</desc>
<g id="Canvas" transform="translate(780 -955)">
<g id="Group">
<g id="Vector">
<use xlink:href="#path0_fill" transform="translate(-779.085 959.861)" fill="#FBBB00"/>
</g>
<g id="Vector">
<use xlink:href="#path1_fill" transform="translate(-769.887 962.319)" fill="#518EF8"/>
</g>
<g id="Vector">
<use xlink:href="#path2_fill" transform="translate(-778.012 965.878)" fill="#28B446"/>
</g>
<g id="Vector">
<use xlink:href="#path3_fill" transform="translate(-778.079 955)" fill="#F14336"/>
</g>
</g>
</g>
<defs>
<path id="path0_fill" d="M 3.98914 6.01665L 3.36259 8.35567L 1.07257 8.40412C 0.388192 7.13473 0 5.68239 0 4.13902C 0 2.6466 0.36295 1.23923 1.0063 1.88828e-07L 1.0068 1.88828e-07L 3.04556 0.373782L 3.93866 2.40033C 3.75173 2.94529 3.64985 3.53029 3.64985 4.13902C 3.64992 4.79968 3.76959 5.43267 3.98914 6.01665Z"/>
<path id="path1_fill" d="M 8.64481 -1.80245e-07C 8.74817 0.544431 8.80206 1.10669 8.80206 1.68132C 8.80206 2.32566 8.73431 2.95419 8.60526 3.56046C 8.16714 5.62354 7.02236 7.42502 5.43651 8.69985L 5.43602 8.69936L 2.86809 8.56834L 2.50465 6.29952C 3.55694 5.68239 4.3793 4.71661 4.81249 3.56046L -3.26154e-07 3.56046L -3.26154e-07 -1.80245e-07L 4.8827 -1.80245e-07L 8.64481 -1.80245e-07Z"/>
<path id="path2_fill" d="M 13.5612 5.14038L 13.5617 5.14087C 12.0194 6.38059 10.0601 7.12236 7.92734 7.12236C 4.49996 7.12236 1.52011 5.20665 2.73583e-08 2.38747L 2.91657 -1.20163e-07C 3.67661 2.02845 5.63335 3.47243 7.92734 3.47243C 8.91336 3.47243 9.83712 3.20587 10.6298 2.74054L 13.5612 5.14038Z"/>
<path id="path3_fill" d="M 13.7382 2.07197L 10.8226 4.45895C 10.0023 3.94616 9.03254 3.64993 7.99361 3.64993C 5.64769 3.64993 3.65435 5.16014 2.93239 7.26133L 0.0004922 4.861L 1.93117e-08 4.861C 1.49785 1.97308 4.51529 0 7.99361 0C 10.1773 0 12.1796 0.777869 13.7382 2.07197Z"/>
</defs>
</svg>
